<?xml version="1.0" encoding="UTF-8"?>
<svg version="1.1" xmlns="http://www.w3.org/2000/svg" width="1831" height="409">
<path d="M0 0 C604.23 0 1208.46 0 1831 0 C1831 134.97 1831 269.94 1831 409 C1226.77 409 622.54 409 0 409 C0 274.03 0 139.06 0 0 Z " fill="#FEFEFE" transform="translate(0,0)"/>
<path d="M0 0 C604.23 0 1208.46 0 1831 0 C1831 134.97 1831 269.94 1831 409 C1226.77 409 622.54 409 0 409 C0 274.03 0 139.06 0 0 Z M18 23 C16.64728769 25.70542462 16.8720474 27.80803213 16.86857224 30.83876514 C16.86473109 32.09020276 16.86088995 33.34164037 16.8569324 34.63100034 C16.85771274 36.03263086 16.85859154 37.43426132 16.85955811 38.83589172 C16.85697597 40.31485849 16.85396323 41.79382456 16.8505547 43.27278966 C16.84246365 47.35178638 16.84069397 51.43076552 16.83995724 55.50976932 C16.83811033 59.90319537 16.83056484 64.29661221 16.82382202 68.69003296 C16.81022325 78.30357876 16.80421158 87.9171204 16.79981136 97.53067422 C16.79705155 103.52991783 16.79281469 109.52915981 16.78830719 115.52840233 C16.77611252 132.12845541 16.76581359 148.72850718 16.7624321 165.32856464 C16.76221253 166.39160903 16.76199297 167.45465342 16.76176675 168.54991127 C16.76154847 169.6155441 16.76133019 170.68117693 16.7611053 171.77910167 C16.76066183 173.93859057 16.76021526 176.09807946 16.75976562 178.25756836 C16.7595442 179.32875651 16.75932277 180.39994466 16.75909463 181.50359305 C16.75514548 198.86596425 16.73768878 216.22829351 16.7144061 233.59064851 C16.69071202 251.40312312 16.67823113 269.21557666 16.67706418 287.02806729 C16.67614633 297.03444939 16.6703663 307.04077685 16.65224457 317.04714394 C16.63686977 325.56694091 16.63170758 334.08666636 16.63998267 342.60647456 C16.6438985 346.95540902 16.64291432 351.30419935 16.62892532 355.65311623 C16.61624205 359.63240874 16.6173345 363.61144798 16.62951604 367.59073987 C16.63148275 369.03221547 16.62834988 370.47370868 16.61967167 371.9151595 C16.60863803 373.87131436 16.61782642 375.82755224 16.6280632 377.78371143 C16.62716757 379.4150725 16.62716757 379.4150725 16.62625384 381.07939035 C17.05693226 384.44489265 17.98401398 386.29084832 20 389 C23.29294169 391.19529446 24.24676031 391.25031749 28.06741538 391.25170567 C29.12458225 391.25693949 30.18174913 391.2621733 31.27095137 391.26756572 C33.02392606 391.2609251 33.02392606 391.2609251 34.81231439 391.25415033 C36.6764632 391.25891632 36.6764632 391.25891632 38.57827159 391.26377859 C42.0557136 391.27237783 45.53304853 391.26840866 49.01049209 391.26253094 C52.79723643 391.25832314 56.58396075 391.26568563 60.37070036 391.27159455 C67.04234829 391.28038497 73.71396582 391.28166442 80.38561814 391.27816027 C90.37337129 391.27294709 100.36109462 391.27917491 110.34884435 391.28767375 C127.36770941 391.30180805 144.38656519 391.30634046 161.40543556 391.30570221 C178.6617717 391.30508117 195.91809882 391.30874879 213.17443275 391.31768227 C214.26276083 391.31824205 215.3510889 391.31880184 216.47239661 391.31937859 C220.90470255 391.32167013 225.33700848 391.32398847 229.76931439 391.32634189 C276.05521719 391.35087786 322.34111632 391.3610112 368.62702487 391.36586904 C373.61233456 391.36639272 378.59764424 391.36691856 383.58295393 391.36744571 C384.81999966 391.36757477 386.05704539 391.36770383 387.33157735 391.3678368 C414.71892459 391.37073985 442.1062708 391.37689687 469.49361735 391.38354302 C480.76332448 391.38626639 492.03303163 391.38889742 503.30273879 391.39152867 C504.54786433 391.39181958 505.79298988 391.39211049 507.0758465 391.39241022 C577.7805586 391.40888219 648.48527035 391.42085609 719.1899844 391.42325508 C722.52973728 391.4233694 725.86949017 391.42348942 729.20924305 391.42360866 C740.60271776 391.42401338 751.99619247 391.42439685 763.38966719 391.42477929 C768.76902828 391.42496006 774.14838938 391.42514383 779.52775048 391.4253295 C782.8938172 391.42544551 786.25988393 391.4255598 789.62595065 391.42567028 C853.2084217 391.42776339 916.79088552 391.43451489 980.37335205 391.4598999 C981.04281321 391.46016705 981.71227436 391.46043421 982.40202222 391.46070945 C1003.31912176 391.46907155 1024.23622105 391.47801238 1045.15332031 391.48706055 C1066.61537353 391.49634272 1088.07742677 391.50554363 1109.53948021 391.51428127 C1110.20028365 391.51455061 1110.86108709 391.51481994 1111.54191488 391.51509744 C1152.9161754 391.53193544 1194.29043391 391.54271222 1235.66469765 391.54700565 C1236.94217018 391.54713909 1238.21964272 391.54727253 1239.53582654 391.54741001 C1267.57534709 391.55028191 1295.61486754 391.55169956 1323.65438824 391.55176822 C1333.68668362 391.55180791 1343.71897901 391.55196486 1353.75127439 391.55218274 C1356.24717999 391.55223639 1358.74308559 391.5522845 1361.23899119 391.55232707 C1401.05759638 391.55307144 1440.87617829 391.5687596 1480.6947762 391.59193837 C1520.78445916 391.61517223 1560.87411211 391.62246013 1600.96380007 391.6077575 C1606.49678838 391.60572967 1612.02977672 391.60387577 1617.56276512 391.60212517 C1618.64743878 391.60177511 1619.73211243 391.60142506 1620.84965499 391.60106439 C1638.0628372 391.59596674 1655.27596558 391.60770785 1672.48913671 391.62636972 C1689.39235408 391.64434756 1706.29549359 391.64464577 1723.19871091 391.6258074 C1733.12325141 391.61528448 1743.04756001 391.61860939 1752.97208 391.64192616 C1759.55048797 391.6560296 1766.12872307 391.6522357 1772.70711906 391.63344466 C1776.44460501 391.62328233 1780.18163332 391.6211175 1783.91909108 391.64088022 C1787.92542484 391.66189455 1791.93065602 391.64464757 1795.93698728 391.62329382 C1797.68278975 391.64175599 1797.68278975 391.64175599 1799.46386096 391.66059114 C1805.89562088 391.75415926 1805.89562088 391.75415926 1811.19143829 388.58604414 C1813.87966365 384.74217782 1814.12652963 382.8365353 1814.13422108 378.16402817 C1814.13867892 376.91320725 1814.14313676 375.66238634 1814.14772969 374.37366176 C1814.14764039 372.9727203 1814.14745052 371.57177884 1814.14717102 370.1708374 C1814.15046864 368.69258313 1814.154194 367.21432976 1814.1583125 365.73607755 C1814.16835218 361.65901357 1814.17205245 357.58196432 1814.17470181 353.50488973 C1814.17859904 349.113488 1814.18817776 344.722098 1814.19691467 340.33070374 C1814.2166955 329.71814518 1814.22674732 319.10558565 1814.23564246 308.49301326 C1814.24002269 303.4988536 1814.24539018 298.50469501 1814.25063133 293.51053619 C1814.26764519 276.91477554 1814.28214021 260.31901556 1814.28938007 243.72324753 C1814.29129006 239.41461944 1814.29321038 235.10599135 1814.29516602 230.79736328 C1814.29564976 229.72643744 1814.2961335 228.65551161 1814.2966319 227.55213347 C1814.30493536 210.19689076 1814.33027692 192.84171691 1814.36274669 175.48650429 C1814.39579056 157.67967519 1814.41382641 139.87288113 1814.41702431 122.0660212 C1814.41919189 112.06349943 1814.4279766 102.06107807 1814.45348549 92.05858612 C1814.475156 83.54136624 1814.48326094 75.02427114 1814.47351871 66.50702682 C1814.46896339 62.15995005 1814.47093143 57.81313094 1814.49028015 53.46608925 C1814.50783713 49.48729824 1814.50697533 45.50895429 1814.49138286 41.53015903 C1814.48899537 40.09000851 1814.49338922 38.64982765 1814.50521151 37.20972368 C1814.84134136 27.22158471 1814.84134136 27.22158471 1810 19 C1807.50795819 17.75397909 1805.84665676 17.87417437 1803.05725579 17.87296549 C1802.00244181 17.87008457 1800.94762783 17.86720365 1799.86084979 17.86423543 C1798.68969111 17.86615363 1797.51853244 17.86807184 1796.31188411 17.87004817 C1795.07039632 17.86814892 1793.82890853 17.86624968 1792.5497999 17.86429289 C1789.07130741 17.85911848 1785.59284005 17.86023999 1782.11434536 17.86230651 C1778.32817526 17.86346289 1774.54201162 17.85884427 1770.75584397 17.85494977 C1764.08364964 17.84889927 1757.411462 17.84661403 1750.73926505 17.84672292 C1740.75067474 17.84687308 1730.76209321 17.84133428 1720.77350541 17.83467601 C1703.75359422 17.82351029 1686.73368423 17.81719525 1669.71376991 17.81350327 C1652.45540346 17.80975273 1635.19703974 17.80388463 1617.93867493 17.79542542 C1616.85037555 17.79489432 1615.76207616 17.79436323 1614.64079801 17.79381604 C1610.2086352 17.79164941 1605.7764724 17.78947279 1601.3443096 17.7872821 C1547.56877012 17.76075692 1493.79322918 17.7452115 1440.01768499 17.73211922 C1422.58436334 17.72787126 1405.15104179 17.72330367 1387.71772027 17.7185359 C1297.11050863 17.69381313 1206.50329663 17.67173924 1115.89608235 17.65961347 C1108.54554635 17.65862944 1101.19501036 17.65762505 1093.84447436 17.65661778 C1093.18167872 17.65652701 1092.51888307 17.65643623 1091.83600271 17.6563427 C1078.40677927 17.65450281 1064.97755583 17.65264254 1051.5483324 17.65075338 C1048.1819083 17.65027987 1044.8154842 17.64980807 1041.4490601 17.64934047 C977.86101505 17.64050397 914.27297595 17.62734447 850.68493652 17.59838867 C849.68068853 17.59793168 849.68068853 17.59793168 848.65615269 17.59746545 C826.39169135 17.58732263 804.12723025 17.57665154 781.86276918 17.56592536 C761.74595688 17.55623533 741.62914453 17.5466691 721.51233196 17.5375309 C720.52108025 17.53708034 720.52108025 17.53708034 719.50980324 17.53662069 C678.13352146 17.51784475 636.75724124 17.5051083 595.3809557 17.49864769 C593.46464621 17.49834686 593.46464621 17.49834686 591.50962341 17.49803994 C563.46858017 17.49368999 535.42753694 17.49074384 507.38649342 17.48911343 C496.10479272 17.48843704 484.82309205 17.48758152 473.54139137 17.48667526 C472.3066418 17.48658117 471.07189222 17.48648707 469.799726 17.48639012 C429.97830158 17.48327429 390.15690268 17.46474388 350.33548747 17.43832529 C310.24232444 17.41181398 270.14918994 17.401017 230.05601871 17.41206128 C224.52252193 17.41358294 218.98902511 17.41492833 213.45552826 17.41616821 C212.37075428 17.41641794 211.28598029 17.41666767 210.16833437 17.41692497 C192.95354116 17.42042746 175.73880339 17.40707591 158.5240235 17.38679048 C141.61919587 17.36721611 124.71444434 17.36530697 107.80961325 17.38251677 C97.88410328 17.39208198 87.95882673 17.38778967 78.03334058 17.36349442 C71.45428398 17.3487416 64.87539847 17.35188532 58.29635059 17.37002499 C54.5584908 17.3798168 50.82108953 17.38160954 47.08326092 17.36147178 C43.07652938 17.34005507 39.07089665 17.35690267 35.06416339 17.37785685 C33.90017694 17.3654306 32.73619049 17.35300435 31.53693172 17.34020154 C25.13063891 17.41179259 21.7813761 17.59268307 18 23 Z " fill="#069648" transform="translate(0,0)"/>
<path d="M0 0 C1.29873047 -0.00177246 2.59746094 -0.00354492 3.93554688 -0.00537109 C16.27258769 0.13760786 27.56013345 1.63687213 39.125 6 C40.07375 6.35408936 41.0225 6.70817871 42 7.07299805 C70.61827181 18.06523731 92.81773326 39.65211912 105.35595703 67.50097656 C105.63036621 68.1194043 105.90477539 68.73783203 106.1875 69.375 C106.92806641 71.02628906 106.92806641 71.02628906 107.68359375 72.7109375 C119.13871606 100.24402081 116.72683941 132.11160593 105.90625 159.359375 C94.18028429 187.5395184 70.95501222 208.74626681 43.03662109 220.26220703 C40.86840725 221.12376503 38.69046128 221.9467977 36.5 222.75 C35.8601416 222.98887939 35.2202832 223.22775879 34.56103516 223.47387695 C8.2671159 232.58018166 -24.51770455 229.11808781 -49.29296875 217.1953125 C-57.78913117 212.80107089 -65.45654225 207.47067128 -72.8125 201.375 C-73.59109375 200.74335938 -74.3696875 200.11171875 -75.171875 199.4609375 C-88.61664479 188.0286014 -97.26226126 174.13986777 -104.8125 158.375 C-105.26367188 157.48683594 -105.71484375 156.59867188 -106.1796875 155.68359375 C-117.89813285 130.29362883 -115.45591046 97.97954258 -106.10839844 72.45214844 C-95.17627004 43.71583844 -72.74752532 21.63854133 -45.2265625 8.6875 C-41.46120682 7.08180461 -37.69656361 5.66002602 -33.8125 4.375 C-33.18021484 4.16327148 -32.54792969 3.95154297 -31.89648438 3.73339844 C-21.41330151 0.40933392 -10.92565518 0.00877015 0 0 Z " fill="#FDFEFE" transform="translate(168.8125,90.625)"/>
<path d="M0 0 C10.04121476 -0.06994176 20.08237022 -0.12303328 30.12378025 -0.15543652 C34.78793084 -0.1709994 39.45191306 -0.19206318 44.1159668 -0.22631836 C48.6288153 -0.2592503 53.14150329 -0.27692323 57.65446281 -0.28463173 C59.36419128 -0.29011523 61.07391236 -0.30082027 62.78357124 -0.31719017 C77.38110699 -0.45122349 94.61310199 -0.4762288 106.09375 9.890625 C112.14702931 16.3904577 113.49362556 22.118775 113.30859375 30.90234375 C112.57112142 38.30507229 109.69263619 44.34824982 104.21484375 49.39453125 C99.82902054 52.57367294 94.92756576 54.79109121 90 57 C91.16015625 57.52787109 91.16015625 57.52787109 92.34375 58.06640625 C101.94469266 62.61734813 109.67723124 67.2022725 114.15234375 77.19921875 C116.61595531 85.33935464 115.61304929 93.71893908 112.38671875 101.49609375 C107.4184284 110.46700676 98.70579847 115.61118593 89.1875 118.6875 C77.72582296 121.71500636 66.63821094 122.27616057 54.859375 122.1953125 C53.23984961 122.19157314 51.62032193 122.18873054 50.00079346 122.18673706 C45.77912938 122.17917316 41.55760728 122.15958873 37.33599854 122.1373291 C33.01177896 122.11671279 28.68753601 122.1077019 24.36328125 122.09765625 C15.90878968 122.0763345 7.4544126 122.04228836 -1 122 C-1 119.36 -1 116.72 -1 114 C-0.38511719 113.81824219 0.22976563 113.63648438 0.86328125 113.44921875 C1.67152344 113.19785156 2.47976563 112.94648438 3.3125 112.6875 C4.11300781 112.44386719 4.91351562 112.20023437 5.73828125 111.94921875 C8.19603496 110.91772626 9.32063348 110.04914988 11 108 C11.30166073 104.92865755 11.41990232 102.05939222 11.40405273 98.98632812 C11.41091599 98.06411972 11.41777924 97.14191132 11.42485046 96.1917572 C11.44317809 93.13809897 11.43927279 90.08495152 11.43359375 87.03125 C11.43815238 84.91279939 11.44345699 82.79435027 11.44947815 80.67590332 C11.45842075 76.23390702 11.45597266 71.7920904 11.44604492 67.35009766 C11.43454837 61.64994616 11.45477169 55.95041349 11.48396206 50.25034332 C11.5022824 45.87522423 11.50204001 41.50025462 11.49632454 37.12510681 C11.49617084 35.02309806 11.50225484 32.92107947 11.51461601 30.81910706 C11.52944713 27.88356353 11.51890737 24.94917844 11.50170898 22.01367188 C11.51137695 21.14085068 11.52104492 20.26802948 11.53100586 19.36875916 C11.54042344 14.77843278 11.54042344 14.77843278 9.20301819 11.01086426 C6.2161769 9.64033944 3.1829816 8.7957454 0 8 C0 5.36 0 2.72 0 0 Z " fill="#049547" transform="translate(1283,145)"/>
<path d="M0 0 C14.19 0 28.38 0 43 0 C52.19311235 18.3862247 52.19311235 18.3862247 55.33203125 25.25 C55.69097977 26.02915268 56.04992828 26.80830536 56.41975403 27.61106873 C57.55316608 30.07290676 58.68292157 32.53640098 59.8125 35 C60.60118151 36.7150255 61.39008341 38.42994968 62.17919922 40.14477539 C64.10393435 44.32917275 66.02560867 48.51496524 67.94573975 52.70147705 C68.92904212 54.84529596 69.91287861 56.98886862 70.89697266 59.13232422 C73.93617225 65.75266521 76.97007734 72.37540852 80 79 C88.99028725 62.87159153 97.36974547 46.48291892 105.5625 29.9375 C107.30396825 26.42681389 109.04668304 22.91675947 110.79173279 19.40785217 C111.86467839 17.24982355 112.93548432 15.09072932 114.00379944 12.93040466 C114.72617043 11.47586632 114.72617043 11.47586632 115.46313477 9.99194336 C115.88216568 9.14562851 116.30119659 8.29931366 116.73292542 7.42735291 C117.36012733 6.22581322 117.36012733 6.22581322 118 5 C118.46267273 4.08374847 118.92534546 3.16749695 119.40203857 2.22348022 C121 0 121 0 122.9172821 -0.60127258 C123.99983025 -0.584618 123.99983025 -0.584618 125.10424805 -0.56762695 C125.92487228 -0.5672493 126.74549652 -0.56687164 127.59098816 -0.56648254 C128.47232925 -0.54067612 129.35367035 -0.51486969 130.26171875 -0.48828125 C131.16751175 -0.48120651 132.07330475 -0.47413177 133.00654602 -0.46684265 C135.90103583 -0.43884228 138.7935945 -0.37609441 141.6875 -0.3125 C143.64906061 -0.28742438 145.61065154 -0.26460993 147.57226562 -0.24414062 C152.38225505 -0.18899716 157.19080009 -0.10268642 162 0 C162 2.64 162 5.28 162 8 C160.95199219 8.25523437 160.95199219 8.25523437 159.8828125 8.515625 C158.97273437 8.75796875 158.06265625 9.0003125 157.125 9.25 C156.22007812 9.48203125 155.31515625 9.7140625 154.3828125 9.953125 C151.97147083 10.77931445 151.97147083 10.77931445 150.86824036 12.51318359 C149.56768213 16.23824603 149.71383632 19.93670341 149.7253418 23.8359375 C149.72023087 24.72742493 149.71511993 25.61891235 149.70985413 26.53741455 C149.69595733 29.4833447 149.69691477 32.42904097 149.69921875 35.375 C149.69533228 37.42236417 149.69099771 39.46972753 149.68623352 41.51708984 C149.67877142 45.80764378 149.67906283 50.09811543 149.68432617 54.38867188 C149.69012515 59.89017576 149.67317931 65.39134347 149.6499815 70.89279175 C149.63526016 75.1203814 149.6343702 79.34788975 149.63749123 83.57550049 C149.63697735 85.60411241 149.63172728 87.63272881 149.62167931 89.66131592 C149.60936134 92.49578816 149.61607835 95.32960104 149.62768555 98.1640625 C149.62004181 99.00366516 149.61239807 99.84326782 149.60452271 100.70831299 C149.63491673 104.06138758 149.73478202 106.52272769 151.38191223 109.48681641 C153.37922849 111.35464228 155.07016997 111.99135362 157.6875 112.75 C158.49574219 112.99234375 159.30398438 113.2346875 160.13671875 113.484375 C160.75160156 113.65453125 161.36648438 113.8246875 162 114 C162 116.64 162 119.28 162 122 C145.5 122 129 122 112 122 C112 119.03 112 116.06 112 113 C112.69867187 112.82984375 113.39734375 112.6596875 114.1171875 112.484375 C115.02726563 112.24203125 115.93734375 111.9996875 116.875 111.75 C117.77992188 111.51796875 118.68484375 111.2859375 119.6171875 111.046875 C122.04894725 110.22316352 122.04894725 110.22316352 123.1289978 108.39898682 C124.31563426 105.13065382 124.30819612 102.00255823 124.31884766 98.56933594 C124.32889328 97.82748047 124.3389389 97.085625 124.34928894 96.32128906 C124.38011449 93.87565873 124.39715415 91.43013784 124.4140625 88.984375 C124.43277467 87.28614358 124.45234812 85.58792146 124.4727478 83.88970947 C124.52406987 79.42473835 124.56369517 74.95973708 124.60089111 70.49462891 C124.64093029 65.93644758 124.69202303 61.37839165 124.7421875 56.8203125 C124.83894767 47.88029643 124.92335218 38.94020954 125 30 C117.27037969 44.75003046 109.62347813 59.54004803 102.06054688 74.3762207 C100.47374622 77.48900128 98.88542821 80.60100412 97.296875 83.71289062 C96.27074789 85.72391474 95.24470305 87.73498083 94.21875 89.74609375 C93.75206909 90.66071884 93.28538818 91.57534393 92.80456543 92.51768494 C90.17992087 97.66713386 87.57771724 102.82689447 85 108 C79.72 108 74.44 108 69 108 C56.64161842 83.78766058 45.48764767 58.95498776 34.06884766 34.28955078 C33.3973307 32.85111176 32.70993547 31.41987093 32 30 C31.9536085 39.54476112 31.91809618 49.08948328 31.89637566 58.63433266 C31.88594959 63.06664647 31.87181189 67.498883 31.84912109 71.93115234 C31.82735073 76.21053194 31.81542252 80.48983732 31.81024551 84.76926804 C31.80655729 86.39989769 31.7993551 88.03052341 31.78853989 89.66112137 C31.77396914 91.94946239 31.77202438 94.23749878 31.77294922 96.52587891 C31.76628738 98.47779648 31.76628738 98.47779648 31.75949097 100.46914673 C32.0013144 104.01929636 32.58360623 106.74152868 34 110 C36.362341 111.35830541 36.362341 111.35830541 39.125 111.875 C40.03507813 112.09929687 40.94515625 112.32359375 41.8828125 112.5546875 C42.58148437 112.70164062 43.28015625 112.84859375 44 113 C44 115.97 44 118.94 44 122 C29.48 122 14.96 122 0 122 C0 119.03 0 116.06 0 113 C0.69867187 112.82984375 1.39734375 112.6596875 2.1171875 112.484375 C3.02726563 112.24203125 3.93734375 111.9996875 4.875 111.75 C5.77992188 111.51796875 6.68484375 111.2859375 7.6171875 111.046875 C10.02980576 110.22069953 10.02980576 110.22069953 11.13275146 108.4810791 C12.42486391 104.78452264 12.27765571 101.12499956 12.25878906 97.25585938 C12.2622937 96.37412552 12.26579834 95.49239166 12.26940918 94.5839386 C12.27820888 91.67046222 12.27238352 88.75722883 12.265625 85.84375 C12.26697216 83.81880649 12.26891311 81.7938633 12.27142334 79.7689209 C12.27437222 75.52544067 12.27008451 71.28204466 12.26074219 67.03857422 C12.24934783 61.5976669 12.25590856 56.1569569 12.26788712 50.71605682 C12.27511206 46.53479524 12.27281485 42.35358049 12.26763153 38.1723175 C12.26629679 36.16604082 12.2679366 34.15975989 12.27259064 32.15348816 C12.27766623 29.35025765 12.269931 26.54734728 12.25878906 23.74414062 C12.26283752 22.9138887 12.26688599 22.08363678 12.27105713 21.22822571 C12.2967553 15.77840492 12.2967553 15.77840492 10 11 C7.60540353 9.87108243 7.60540353 9.87108243 4.875 9.25 C3.96492187 9.00765625 3.05484375 8.7653125 2.1171875 8.515625 C1.41851563 8.34546875 0.71984375 8.1753125 0 8 C0 5.36 0 2.72 0 0 Z " fill="#029445" transform="translate(764,145)"/>
<path d="M0 0 C5.20968021 -0.34928232 10.41241266 -0.60142419 15.63110352 -0.76904297 C17.40021497 -0.8389505 19.16853183 -0.93413561 20.93481445 -1.05615234 C35.16405476 -2.0136189 35.16405476 -2.0136189 39.8500061 1.31356812 C43.1256811 4.54448077 45.55293544 8.22365272 47.87792969 12.17271423 C49.70969648 15.15573708 51.88736296 17.82178308 54.0625 20.5625 C54.89263829 21.64037952 55.72100635 22.71962686 56.546875 23.80078125 C58.96392325 26.95424397 61.38809741 30.10218697 63.8125 33.25 C68.28032966 39.05506664 72.73100069 44.87319971 77.17626953 50.69555664 C80.03974855 54.44442574 82.91094511 58.18653178 85.8112793 61.90698242 C89.74770118 66.99981989 93.57406733 72.14673768 97.30078125 77.39453125 C97.75602173 78.0337854 98.21126221 78.67303955 98.68029785 79.33166504 C99.78779936 80.887112 100.89403431 82.44346065 102 84 C101.91561192 75.20283218 101.82073465 66.40585822 101.71247292 57.60895157 C101.66253177 53.52416631 101.6162016 49.43940664 101.578125 45.35449219 C101.54124453 41.41215684 101.49487718 37.47003668 101.44193649 33.52788544 C101.4234072 32.02404303 101.4082938 30.52015451 101.39665604 29.01624298 C101.37976826 26.90936763 101.35072805 24.80298352 101.31884766 22.69628906 C101.30552399 21.49715881 101.29220032 20.29802856 101.2784729 19.06256104 C101.01102988 16.12130327 100.64318271 14.42635505 99 12 C96.83718718 10.8774351 96.83718718 10.8774351 94.375 10.25 C93.55773438 10.00765625 92.74046875 9.7653125 91.8984375 9.515625 C91.27195312 9.34546875 90.64546875 9.1753125 90 9 C90 6.36 90 3.72 90 1 C104.19 1 118.38 1 133 1 C133 3.64 133 6.28 133 9 C129.37 9.99 125.74 10.98 122 12 C121.67 48.63 121.34 85.26 121 123 C115.06 123 109.12 123 103 123 C96.51088083 116.37132988 96.51088083 116.37132988 94.6171875 113.1640625 C91.95680502 108.85436445 88.93234772 104.92153753 85.8125 100.9375 C84.71259923 99.50041302 83.61500381 98.06155914 82.51953125 96.62109375 C81.6680249 95.50323486 81.6680249 95.50323486 80.79931641 94.36279297 C80.20554199 93.58307129 79.61176758 92.80334961 79 92 C77.6914355 90.2825298 76.38284073 88.56508265 75.07421875 86.84765625 C73.03012908 84.16480395 70.9861758 81.48184826 68.94262695 78.79858398 C64.80109083 73.361111 60.65377969 67.92812427 56.5 62.5 C51.43413611 55.87756783 46.37077037 49.25323444 41.3125 42.625 C40.61640625 41.71427734 39.9203125 40.80355469 39.203125 39.86523438 C38.23052734 38.5900293 38.23052734 38.5900293 37.23828125 37.2890625 C36.66118408 36.53318848 36.08408691 35.77731445 35.48950195 34.99853516 C34.27519919 33.36924776 33.12716235 31.69074352 32 30 C32.03803005 40.10107549 32.09735237 50.20177956 32.18390274 60.30256271 C32.22342133 64.99273839 32.25558821 69.6827251 32.27099609 74.37304688 C32.28613396 78.89904621 32.32052798 83.42452616 32.36830902 87.95029449 C32.38315255 89.67741635 32.39104272 91.40461235 32.39188385 93.13179779 C32.39424642 95.55034332 32.42126626 97.96744514 32.45410156 100.38574219 C32.4490712 101.10071869 32.44404083 101.81569519 32.43885803 102.55233765 C32.51034839 105.95298084 32.76685497 107.70426862 34.90032959 110.41046143 C37.00371082 112.00280925 38.7563279 112.91877597 41.25 113.75 C42.4875 114.1625 43.725 114.575 45 115 C45 117.64 45 120.28 45 123 C30.15 123 15.3 123 0 123 C0 120.03 0 117.06 0 114 C1.953125 113.57682292 3.90625 113.15364583 5.859375 112.73046875 C8.61423163 111.79039906 9.97089098 111.14535989 12 109 C12.39123349 105.94238822 12.52616304 103.24455484 12.48583984 100.18579102 C12.48963654 99.28469604 12.49343323 98.38360107 12.49734497 97.4552002 C12.50476535 94.4710835 12.48334553 91.4879367 12.4609375 88.50390625 C12.45855365 86.43269465 12.45764763 84.36148086 12.4581604 82.29026794 C12.45502974 77.94654835 12.43844507 73.6031582 12.41162109 69.25952148 C12.37766217 63.68964787 12.36999179 58.12013686 12.37151146 52.55017185 C12.3709677 48.27195265 12.35999927 43.99381284 12.34550858 39.71562004 C12.33914054 37.66190123 12.33520167 35.60817342 12.33372116 33.55444527 C12.32938707 30.68400877 12.3118829 27.81395733 12.29052734 24.94360352 C12.29143372 24.09307907 12.29234009 23.24255463 12.29327393 22.36625671 C12.28474396 21.58257721 12.27621399 20.79889771 12.26742554 19.99147034 C12.26407385 19.31323998 12.26072216 18.63500963 12.25726891 17.93622684 C11.94559834 15.59056865 11.24946989 14.00403411 10 12 C7.60540353 10.87108243 7.60540353 10.87108243 4.875 10.25 C3.96492188 10.00765625 3.05484375 9.7653125 2.1171875 9.515625 C1.41851563 9.34546875 0.71984375 9.1753125 0 9 C0 6.03 0 3.06 0 0 Z " fill="#059647" transform="translate(1078,144)"/>
<path d="M0 0 C35.64 0 71.28 0 108 0 C108 10.23 108 20.46 108 31 C103.05 31 98.1 31 93 31 C91.56770833 28.00520833 90.13541667 25.01041667 88.703125 22.015625 C86.12764865 17.45537788 84.51848265 15.45802395 79.41113281 13.91748047 C74.97032136 12.87661237 70.67226875 12.65408853 66.125 12.5859375 C65.40570312 12.56829346 64.68640625 12.55064941 63.9453125 12.5324707 C61.29708871 12.47012337 58.64851462 12.42344284 56 12.375 C50.06 12.25125 44.12 12.1275 38 12 C38 25.86 38 39.72 38 54 C42.16625 53.87625 46.3325 53.7525 50.625 53.625 C52.57913818 53.57400146 52.57913818 53.57400146 54.57275391 53.52197266 C55.61351074 53.4863623 56.65426758 53.45075195 57.7265625 53.4140625 C58.78439941 53.3826416 59.84223633 53.3512207 60.93212891 53.31884766 C64.24246234 52.97480059 66.941717 52.31371073 70 51 C71.34163026 48.14186566 71.34163026 48.14186566 72 45 C72.66 43.68 73.32 42.36 74 41 C78.62 41 83.24 41 88 41 C88 53.21 88 65.42 88 78 C83.38 78 78.76 78 74 78 C72.89322917 75.4609375 71.78645833 72.921875 70.6796875 70.3828125 C68.45416217 67.22567192 66.69238618 66.98918938 63 66 C60.01211183 65.64188779 60.01211183 65.64188779 56.9453125 65.5859375 C55.94516113 65.55032715 54.94500977 65.5147168 53.91455078 65.47802734 C52.66399902 65.44402832 51.41344727 65.4100293 50.125 65.375 C46.12375 65.25125 42.1225 65.1275 38 65 C38 80.18 38 95.36 38 111 C44.290625 110.896875 50.58125 110.79375 57.0625 110.6875 C59.03484619 110.66260498 61.00719238 110.63770996 63.03930664 110.61206055 C64.62128 110.57974313 66.2032322 110.54636555 67.78515625 110.51171875 C68.59142456 110.50547485 69.39769287 110.49923096 70.22839355 110.49279785 C76.7747748 110.32776303 81.62885153 109.14532481 86.625 104.625 C90.32607481 99.80499559 91.98515994 93.64155217 94 88 C98.95 88 103.9 88 109 88 C108.85855882 92.33351696 108.71199902 96.66675974 108.5625 101 C108.52318359 102.22074219 108.48386719 103.44148438 108.44335938 104.69921875 C108.40146484 105.89160156 108.35957031 107.08398438 108.31640625 108.3125 C108.27974854 109.40175781 108.24309082 110.49101562 108.20532227 111.61328125 C107.97435141 115.42306453 107.47341308 119.21269539 107 123 C71.69 123 36.38 123 0 123 C0 120.03 0 117.06 0 114 C1.953125 113.57682292 3.90625 113.15364583 5.859375 112.73046875 C8.61861611 111.7889029 9.96887316 111.15138749 12 109 C12.40165558 105.9140887 12.54659362 103.18262899 12.51757812 100.09399414 C12.5245874 99.1831456 12.53159668 98.27229706 12.53881836 97.33384705 C12.55645022 94.31730833 12.54475615 91.30170482 12.53125 88.28515625 C12.53394365 86.1915214 12.53782501 84.09788776 12.54284668 82.0042572 C12.54874897 77.6134756 12.540156 73.22301923 12.52148438 68.83227539 C12.49870867 63.20169426 12.51180484 57.57187632 12.53577423 51.94132328 C12.55022437 47.61675765 12.54562953 43.29237311 12.53526306 38.96780205 C12.53259289 36.89174751 12.53587572 34.81567659 12.54518127 32.73964119 C12.55533222 29.8377844 12.53986528 26.93716495 12.51757812 24.03540039 C12.52567505 23.17552521 12.53377197 22.31565002 12.54211426 21.42971802 C12.48598741 16.60251383 12.48598741 16.60251383 10.10144043 12.48704529 C7.92514832 10.9470326 6.35027869 10.27005574 3.75 9.75 C2.5125 9.5025 1.275 9.255 0 9 C0 6.03 0 3.06 0 0 Z " fill="#049647" transform="translate(634,144)"/>
<path d="M0 0 C35.31 0 70.62 0 107 0 C107 9.9 107 19.8 107 30 C102.38 30 97.76 30 93 30 C92.55269531 29.10796875 92.10539062 28.2159375 91.64453125 27.296875 C90.73767578 25.54117188 90.73767578 25.54117188 89.8125 23.75 C89.22082031 22.58984375 88.62914062 21.4296875 88.01953125 20.234375 C85.84083439 16.74508873 84.49764076 15.14607201 81 13 C77.70378331 12.40004156 74.44941442 12.39511631 71.10546875 12.390625 C70.15811356 12.37408875 69.21075836 12.35755249 68.23469543 12.34051514 C65.2188975 12.29206109 62.20360374 12.27066977 59.1875 12.25 C57.13864655 12.22183818 55.08981655 12.19191045 53.04101562 12.16015625 C48.02711242 12.08298804 43.01479773 12.04244433 38 12 C38 25.53 38 39.06 38 53 C41.815625 52.896875 45.63125 52.79375 49.5625 52.6875 C51.34636108 52.65015747 51.34636108 52.65015747 53.16625977 52.61206055 C59.10212142 52.40668643 63.86813764 52.12374231 69 49 C70.64665363 46.81460805 70.64665363 46.81460805 71.4375 44.3125 C71.953125 42.889375 72.46875 41.46625 73 40 C77.95 40 82.9 40 88 40 C88 52.21 88 64.42 88 77 C83.05 77 78.1 77 73 77 C72.05598958 74.72135417 71.11197917 72.44270833 70.16796875 70.1640625 C69.05560918 67.69852542 69.05560918 67.69852542 66 66 C62.9957293 65.63072954 62.9957293 65.63072954 59.58203125 65.5859375 C58.4525708 65.55032715 57.32311035 65.5147168 56.15942383 65.47802734 C54.00769653 65.42702881 54.00769653 65.42702881 51.8125 65.375 C47.254375 65.25125 42.69625 65.1275 38 65 C38 79.85 38 94.7 38 110 C44.105 109.896875 50.21 109.79375 56.5 109.6875 C58.41103516 109.66260498 60.32207031 109.63770996 62.29101562 109.61206055 C63.82945102 109.57973317 65.36786483 109.54635422 66.90625 109.51171875 C68.07559082 109.50235291 68.07559082 109.50235291 69.26855469 109.49279785 C74.77856637 109.35020815 78.97183331 108.3070773 84 106 C89.03694488 100.49450211 91.28934829 93.89280007 94 87 C98.95 87 103.9 87 109 87 C108.73779203 91.82411746 108.47279404 96.64790524 108.20043945 101.47143555 C108.10858519 103.11359477 108.01841195 104.75584889 107.92993164 106.39819336 C107.80272457 108.75401139 107.66954596 111.10942594 107.53515625 113.46484375 C107.49656998 114.20339096 107.4579837 114.94193817 107.41822815 115.7028656 C107.11387171 120.88612829 107.11387171 120.88612829 106 122 C104.62123975 122.0953919 103.23763084 122.12188622 101.85557556 122.12025452 C100.96230057 122.12162918 100.06902557 122.12300385 99.14868164 122.12442017 C97.66730713 122.11902725 97.66730713 122.11902725 96.15600586 122.11352539 C94.6049691 122.11374443 94.6049691 122.11374443 93.02259827 122.1139679 C89.58665914 122.11326827 86.15077347 122.10547358 82.71484375 122.09765625 C80.33972707 122.09579225 77.96461 122.09436826 75.5894928 122.09336853 C69.32423856 122.08954197 63.05900733 122.0797105 56.79376221 122.06866455 C50.4061311 122.0584534 44.01849629 122.05387155 37.63085938 122.04882812 C25.08722945 122.03808836 12.54361663 122.02101029 0 122 C0 119.03 0 116.06 0 113 C0.69867187 112.84144531 1.39734375 112.68289063 2.1171875 112.51953125 C3.48230469 112.16955078 3.48230469 112.16955078 4.875 111.8125 C5.77992188 111.59207031 6.68484375 111.37164062 7.6171875 111.14453125 C10.13314997 110.21697488 10.13314997 110.21697488 11.13374329 107.97633362 C12.2770913 104.04795411 12.27079153 100.28780207 12.24291992 96.23413086 C12.24481827 95.36200455 12.24671661 94.48987823 12.24867249 93.59132385 C12.25236963 90.71573831 12.24169141 87.84040675 12.23046875 84.96484375 C12.22927627 82.96375051 12.22882393 80.96265669 12.2290802 78.96156311 C12.22751718 74.7711333 12.21924096 70.58078913 12.20581055 66.39038086 C12.18881008 61.01792823 12.18499666 55.6455696 12.18575573 50.27309322 C12.18548388 46.14245201 12.18000046 42.01183135 12.17275429 37.88119698 C12.16957156 35.90004189 12.16760113 33.91888448 12.16686058 31.93772697 C12.16469347 29.17060243 12.15594141 26.40357772 12.14526367 23.63647461 C12.14571686 22.81714447 12.14617004 21.99781433 12.14663696 21.15365601 C12.12620434 17.53399451 11.88419342 14.53677369 11 11 C7.37 10.01 3.74 9.02 0 8 C0 5.36 0 2.72 0 0 Z " fill="#039546" transform="translate(949,145)"/>
<path d="M0 0 C16.5 0 33 0 50 0 C50 2.97 50 5.94 50 9 C49.30132813 9.18175781 48.60265625 9.36351562 47.8828125 9.55078125 C46.97273438 9.80214844 46.06265625 10.05351562 45.125 10.3125 C43.76761719 10.67794922 43.76761719 10.67794922 42.3828125 11.05078125 C39.67886681 11.86669852 39.67886681 11.86669852 38 15 C37.79588648 17.48412648 37.7062682 19.85708999 37.70947266 22.34204102 C37.70275543 23.08719467 37.69603821 23.83234833 37.68911743 24.6000824 C37.67009495 27.06809132 37.66621009 29.53582852 37.6640625 32.00390625 C37.65763379 33.72444266 37.65090537 35.44497797 37.64389038 37.16551208 C37.63190436 40.77776621 37.62821054 44.38992465 37.62939453 48.00219727 C37.62959694 52.60982497 37.60238182 57.21683048 37.56785011 61.82431126 C37.54549625 65.38218443 37.5415597 68.93991042 37.54261398 72.4978466 C37.54026743 74.19495713 37.53149768 75.89207231 37.51594925 77.58911324 C37.23363479 92.17569369 37.23363479 92.17569369 43.61294556 104.91969299 C49.92013339 111.24992385 57.89341462 111.21178559 66.375 111.375 C74.07366147 111.36155549 81.36555418 110.56245952 87.671875 105.71484375 C95.82536722 97.1057152 94.39410561 84.52612265 94.29296875 73.62109375 C94.28736547 71.84034077 94.28309883 70.05958313 94.28010559 68.27882385 C94.26871443 63.61810275 94.23929729 58.95766726 94.20599365 54.29705811 C94.17516852 49.53076032 94.16157379 44.76441586 94.14648438 39.99804688 C94.1144215 30.66523989 94.06329535 21.3326438 94 12 C90.37 11.01 86.74 10.02 83 9 C83 6.36 83 3.72 83 1 C98.84 1 114.68 1 131 1 C131 3.64 131 6.28 131 9 C130.30132813 9.18175781 129.60265625 9.36351562 128.8828125 9.55078125 C127.97273438 9.80214844 127.06265625 10.05351562 126.125 10.3125 C124.76761719 10.67794922 124.76761719 10.67794922 123.3828125 11.05078125 C120.67886681 11.86669852 120.67886681 11.86669852 119 15 C118.69683806 18.20578482 118.69683806 18.20578482 118.74462891 21.92724609 C118.74100845 22.62856659 118.737388 23.32988708 118.73365784 24.05245972 C118.72676427 25.5764066 118.72425833 27.10037817 118.72560501 28.62434006 C118.72657225 31.04787473 118.71359998 33.47096818 118.69662476 35.8944397 C118.65044644 42.78554747 118.62580088 49.67661397 118.61914062 56.56787109 C118.61408135 60.78609754 118.58959917 65.00387083 118.55381393 69.2219429 C118.54410591 70.8188363 118.54163406 72.41579282 118.54698563 74.01270676 C118.58983267 87.44304796 117.20502016 100.42173674 108 111 C97.74594538 121.25405462 81.85709409 124.2189472 67.8918457 124.27905273 C66.83441162 124.26946533 65.77697754 124.25987793 64.6875 124.25 C63.02883911 124.23658569 63.02883911 124.23658569 61.33666992 124.22290039 C46.90605639 124.0176754 34.00406543 122.53828734 22.48046875 112.890625 C14.53815286 104.57992711 11.84948126 94.77887597 11.8581543 83.51928711 C11.85467987 82.78371078 11.85120544 82.04813446 11.84762573 81.29026794 C11.84029797 79.69975978 11.83493679 78.10924159 11.83133507 76.51872063 C11.82414341 74.00096802 11.8084592 71.48340733 11.78999329 68.9657135 C11.73763312 61.80976904 11.68950987 54.65393493 11.67407227 47.49780273 C11.66399946 43.11518968 11.63470187 38.73306793 11.59275246 34.35064888 C11.58043617 32.6821317 11.57532236 31.0135452 11.57755089 29.34498405 C11.57990018 27.01322642 11.55777137 24.68288475 11.5300293 22.35131836 C11.53993141 21.31868866 11.53993141 21.31868866 11.55003357 20.26519775 C11.48608058 16.99385789 11.19519648 15.25841681 9.20124817 12.6186676 C6.31156527 10.49376585 3.46777872 9.80025663 0 9 C0 6.03 0 3.06 0 0 Z " fill="#039546" transform="translate(1418,144)"/>
<path d="M0 0 C33.99 0 67.98 0 103 0 C103 8.99773243 103 8.99773243 100.61328125 12.0859375 C99.83416382 13.12596924 99.83416382 13.12596924 99.03930664 14.18701172 C98.46946045 14.90904785 97.89961426 15.63108398 97.3125 16.375 C96.1089337 17.96841677 94.90582105 19.56217628 93.703125 21.15625 C92.7759668 22.36474609 92.7759668 22.36474609 91.83007812 23.59765625 C89.00451832 27.30676891 86.2838701 31.08914697 83.5625 34.875 C83.02987549 35.61153809 82.49725098 36.34807617 81.94848633 37.10693359 C77.30784688 43.53371595 72.76797658 50.02895489 68.23510742 56.53198242 C63.80996029 62.87020858 59.3056972 69.14700037 54.76708984 75.40429688 C46.71698163 86.51231274 38.86326221 97.75936445 31 109 C37.01397009 109.07432654 43.02767096 109.12868588 49.04199219 109.16479492 C51.08663594 109.17985288 53.13124755 109.20030357 55.17578125 109.22631836 C58.11987252 109.26283311 61.06353557 109.27975651 64.0078125 109.29296875 C64.9174173 109.30845261 65.82702209 109.32393646 66.76419067 109.33988953 C72.81000331 109.34148167 76.94053678 108.47694883 81.7746582 104.56323242 C83.18910956 102.75874307 83.87122324 101.15838465 84.60546875 98.98828125 C84.99702148 97.85229492 84.99702148 97.85229492 85.39648438 96.69335938 C85.65751953 95.90767578 85.91855469 95.12199219 86.1875 94.3125 C86.46013672 93.51521484 86.73277344 92.71792969 87.01367188 91.89648438 C87.68362192 89.93364828 88.34286146 87.96716231 89 86 C93.95 86 98.9 86 104 86 C104 97.88 104 109.76 104 122 C69.02 122 34.04 122 -2 122 C-2 113.00153462 -2 113.00153462 0.16796875 110.1328125 C0.64234375 109.48441406 1.11671875 108.83601563 1.60546875 108.16796875 C2.12753906 107.49378906 2.64960937 106.81960937 3.1875 106.125 C3.72632813 105.39667969 4.26515625 104.66835937 4.8203125 103.91796875 C5.9593798 102.37904411 7.10587092 100.84558992 8.25927734 99.31738281 C11.06248944 95.58553299 13.77545047 91.78942483 16.5 88 C17.59360649 86.48947942 18.68735633 84.97906262 19.78125 83.46875 C22.88687942 79.16864772 25.94902449 74.83898628 29 70.5 C33.12391398 64.6351197 37.29336669 58.80582862 41.5 53 C45.73862259 47.14618332 49.95391437 41.2771686 54.125 35.375 C54.55490234 34.76785156 54.98480469 34.16070312 55.42773438 33.53515625 C60.68875455 26.07238755 65.83381008 18.52853203 71 11 C65.57368188 11.09394569 60.14778844 11.20012916 54.72192383 11.31738281 C52.87823954 11.35553358 51.03448434 11.3904101 49.19067383 11.421875 C46.53180699 11.46782895 43.87342247 11.5257716 41.21484375 11.5859375 C40.39789536 11.59748871 39.58094696 11.60903992 38.73924255 11.62094116 C30.39998296 11.82594303 30.39998296 11.82594303 23.1796875 15.55859375 C19.33936794 21.08911384 16.6347414 26.80060848 14 33 C9.38 33 4.76 33 0 33 C0 22.11 0 11.22 0 0 Z " fill="#029545" transform="translate(512,145)"/>
<path d="M0 0 C1.29873047 -0.00177246 2.59746094 -0.00354492 3.93554688 -0.00537109 C16.27258769 0.13760786 27.56013345 1.63687213 39.125 6 C40.07375 6.35408936 41.0225 6.70817871 42 7.07299805 C70.61827181 18.06523731 92.81773326 39.65211912 105.35595703 67.50097656 C105.63036621 68.1194043 105.90477539 68.73783203 106.1875 69.375 C106.92806641 71.02628906 106.92806641 71.02628906 107.68359375 72.7109375 C119.13871606 100.24402081 116.72683941 132.11160593 105.90625 159.359375 C94.18028429 187.5395184 70.95501222 208.74626681 43.03662109 220.26220703 C40.86840725 221.12376503 38.69046128 221.9467977 36.5 222.75 C35.8601416 222.98887939 35.2202832 223.22775879 34.56103516 223.47387695 C8.2671159 232.58018166 -24.51770455 229.11808781 -49.29296875 217.1953125 C-57.78913117 212.80107089 -65.45654225 207.47067128 -72.8125 201.375 C-73.59109375 200.74335938 -74.3696875 200.11171875 -75.171875 199.4609375 C-88.61664479 188.0286014 -97.26226126 174.13986777 -104.8125 158.375 C-105.26367188 157.48683594 -105.71484375 156.59867188 -106.1796875 155.68359375 C-117.89813285 130.29362883 -115.45591046 97.97954258 -106.10839844 72.45214844 C-95.17627004 43.71583844 -72.74752532 21.63854133 -45.2265625 8.6875 C-41.46120682 7.08180461 -37.69656361 5.66002602 -33.8125 4.375 C-33.18021484 4.16327148 -32.54792969 3.95154297 -31.89648438 3.73339844 C-21.41330151 0.40933392 -10.92565518 0.00877015 0 0 Z M-77.66796875 41.890625 C-98.99499215 66.59734063 -106.53591794 95.1078383 -104.8125 127.375 C-102.76303908 150.09349231 -90.99712594 170.90749476 -75.8125 187.375 C-75.23113281 188.03757812 -74.64976563 188.70015625 -74.05078125 189.3828125 C-57.91428958 206.86062463 -31.57394571 218.32515903 -8.09912109 219.51220703 C22.17140678 220.68002885 49.34946462 213.00512863 72.1875 192.375 C73.04085937 191.60414063 73.89421875 190.83328125 74.7734375 190.0390625 C89.84832338 175.70632485 98.93415716 157.26847269 104.1875 137.375 C104.37223877 136.71838379 104.55697754 136.06176758 104.74731445 135.38525391 C111.32205346 109.79819354 105.00715628 81.86283655 92.1875 59.375 C89.75556409 55.4736726 87.14143266 51.89457933 84.1875 48.375 C83.14142578 47.12203125 83.14142578 47.12203125 82.07421875 45.84375 C64.30074653 25.38689387 41.12965411 12.08678147 14.1875 8.375 C10.0576132 8.11190103 5.94965661 8.08751943 1.8125 8.125 C0.7083374 8.13321777 -0.3958252 8.14143555 -1.53344727 8.14990234 C-30.99055648 8.55446723 -57.32781452 20.60704989 -77.66796875 41.890625 Z " fill="#079649" transform="translate(168.8125,90.625)"/>
<path d="M0 0 C0 9.24 0 18.48 0 28 C-4.95 28 -9.9 28 -15 28 C-15.53625 26.659375 -16.0725 25.31875 -16.625 23.9375 C-19.09136125 18.49951599 -21.64392062 13.76934016 -27.08203125 10.90234375 C-35.67122602 7.83986137 -46.58551823 7.21776103 -55.125 10.625 C-59.10901275 12.80152115 -61.7333094 14.97845215 -64 19 C-64.8564063 24.13079134 -64.65698923 28.44711637 -62.625 33.25 C-55.47156991 40.74406962 -46.67940394 44.72982212 -37.1875 48.5 C-4.47354345 61.98192081 -4.47354345 61.98192081 1.41015625 75.51171875 C3.65824821 84.99539147 3.01685481 95.54973517 -2 104 C-7.60578523 112.74152134 -16.77354159 117.40312906 -26.65795898 119.8659668 C-47.36267182 124.05163099 -69.58357661 120.86583165 -90 117 C-90 107.76 -90 98.52 -90 89 C-85.05 89 -80.1 89 -75 89 C-74.443125 90.546875 -73.88625 92.09375 -73.3125 93.6875 C-70.74261731 100.09410897 -67.16062293 103.84070619 -61 107 C-56.48039045 108.35817888 -51.99640268 108.26102854 -47.3125 108.3125 C-46.45205078 108.34150391 -45.59160156 108.37050781 -44.70507812 108.40039062 C-38.40983459 108.46206219 -33.42210334 107.28302312 -28 104 C-22.85023068 98.59274222 -22.56718424 94.56639491 -22.6796875 87.26171875 C-23.14943467 82.47831767 -24.33743985 80.07970112 -28 77 C-36.1511326 70.88296559 -45.83736434 67.51026733 -55.19458008 63.69873047 C-68.17967057 58.36478757 -82.07892433 52.2519182 -88.15625 38.7421875 C-90.31082809 31.73980869 -89.84029084 23.95944445 -87.14453125 17.15234375 C-81.5038848 6.54484822 -71.65848857 1.56466187 -60.62890625 -2.12890625 C-40.89992566 -6.86471106 -19.60038377 -3.92007675 0 0 Z " fill="#039546" transform="translate(1657,147)"/>
<path d="M0 0 C604.23 0 1208.46 0 1831 0 C1831 7.59 1831 15.18 1831 23 C1829.45790811 20.68686216 1828.21711525 18.53951971 1827 16.0625 C1826.67 15.39347656 1826.34 14.72445313 1826 14.03515625 C1825.32868846 12.66893238 1824.70368445 11.27905367 1824.125 9.87109375 C1822.7060908 7.51117185 1821.48354655 7.14033068 1819 6 C1818.29646841 5.65258716 1817.59293682 5.30517432 1816.86808609 4.94723382 C1809.9243274 1.83786318 1803.84890611 1.43676712 1796.30777341 1.50090468 C1794.4284941 1.49286347 1794.4284941 1.49286347 1792.51124956 1.48465981 C1789.03802523 1.47036867 1785.56525645 1.48088522 1782.09204998 1.49550778 C1778.29782099 1.50702882 1774.50365083 1.49521139 1770.70942441 1.48642033 C1764.03545356 1.47416916 1757.36161634 1.47680665 1750.6876475 1.48910971 C1740.69653043 1.50745069 1730.70551514 1.50268892 1720.71439029 1.49341127 C1703.6870066 1.47827463 1686.65967421 1.4821282 1669.63229179 1.4962616 C1652.37405218 1.51051424 1635.11584247 1.51607229 1617.85759735 1.51098251 C1616.76804951 1.51066678 1615.67850167 1.51035105 1614.55593723 1.51002576 C1609.00042746 1.50837777 1603.44491774 1.50659202 1597.88940802 1.504761 C1557.66344444 1.49181378 1517.43750302 1.49852672 1477.21154213 1.51594925 C1437.36587623 1.53317615 1397.5202208 1.54301294 1357.67455101 1.54261398 C1355.17384553 1.54259814 1352.67314005 1.54258269 1350.17243457 1.54256765 C1340.12359156 1.5424929 1330.07474856 1.54236006 1320.02590556 1.54215602 C1291.93416936 1.54160073 1263.84243328 1.54237833 1235.75069714 1.54413414 C1234.47139416 1.54421348 1233.19209118 1.54429283 1231.87402144 1.54437457 C1191.1006023 1.54699105 1150.32718636 1.55532663 1109.55376911 1.56785011 C1108.89249353 1.56805293 1108.23121796 1.56825574 1107.54990373 1.5684647 C1086.07357399 1.57505763 1064.59724437 1.5820305 1043.12091477 1.58903817 C1022.19262978 1.59586656 1001.26434475 1.60255487 980.33605957 1.60876465 C979.66625447 1.60896346 978.99644937 1.60916228 978.30634714 1.60936712 C914.70033737 1.6281939 851.09432984 1.63045535 787.48831771 1.62942679 C784.1212052 1.62937304 780.75409269 1.62932326 777.38698018 1.62927325 C773.35060019 1.62921303 769.3142202 1.62915255 765.27784021 1.62909073 C751.20142176 1.62887517 737.12500331 1.62867673 723.04858486 1.62851247 C721.04498871 1.62848855 719.04139257 1.62846305 717.03779643 1.6284372 C645.69646568 1.62753341 574.35513654 1.63647838 503.013807 1.64914167 C501.7686846 1.64936201 500.52356219 1.64958235 499.24070881 1.64980937 C482.34030533 1.65280028 482.34030533 1.65280028 465.43990186 1.65585856 C438.03584456 1.66085268 410.63178781 1.6647326 383.22773004 1.66548586 C381.99184949 1.66552092 380.75596894 1.66555598 379.48263747 1.6655921 C374.501538 1.66573051 369.52043853 1.66586102 364.53933906 1.66598707 C318.36420834 1.66715806 272.18908738 1.67466871 226.01396076 1.69494446 C221.59204034 1.6968597 217.1701199 1.69874636 212.74819946 1.70061111 C211.66295284 1.70107218 210.57770622 1.70153325 209.45957333 1.70200828 C192.24303585 1.70914957 175.02650493 1.70960932 157.80996639 1.70733945 C140.90031933 1.70525631 123.99068698 1.71029848 107.08104445 1.72303971 C97.15514391 1.73030882 87.2292785 1.73208364 77.30337703 1.72588369 C70.72158906 1.72231667 64.13983097 1.7259278 57.55804907 1.73551925 C53.82040581 1.74076259 50.0828345 1.74283862 46.34519196 1.73612153 C42.33545902 1.7289849 38.32590631 1.73719605 34.3161791 1.74700034 C33.15683698 1.74245512 31.99749486 1.73790991 30.80302116 1.73322696 C22.8456635 1.77146343 16.4758032 2.0702815 10.3125 7.625 C9.58675781 8.25664062 8.86101563 8.88828125 8.11328125 9.5390625 C1.33243821 17.43542316 1.42593496 24.87012188 1.49206543 34.87217712 C1.48745293 36.39059994 1.48109768 37.90901829 1.47315645 39.42742735 C1.45648753 43.5878784 1.46469832 47.74796155 1.47710133 51.90841377 C1.48615959 56.39999159 1.47217819 60.89150659 1.46118164 65.3830719 C1.44339969 74.17756305 1.44723509 82.97191761 1.4588322 91.7664141 C1.46786809 98.91480405 1.46908985 106.06315574 1.46473694 113.21154976 C1.46412401 114.22920027 1.46351107 115.24685078 1.46287957 116.29533919 C1.46160066 118.36273134 1.4603038 120.43012349 1.4589892 122.49751563 C1.4475842 141.88164608 1.46069556 161.26570086 1.48219067 180.6498189 C1.50005888 197.2778957 1.49695966 213.90586078 1.47851562 230.53393555 C1.45710287 249.84745532 1.44868567 269.16090875 1.46096468 288.47443873 C1.46223886 290.53450397 1.46349635 292.59456922 1.46473694 294.65463448 C1.46535404 295.66820074 1.46597114 296.68176701 1.46660694 297.72604741 C1.47005883 304.86433181 1.46423492 312.0025741 1.45481873 319.14085197 C1.44359276 327.8423137 1.44665128 336.54363112 1.4679417 345.24507635 C1.47844446 349.68368672 1.4825872 354.12205661 1.46934509 358.56066513 C1.45739912 362.62636418 1.46401982 366.69160051 1.4852553 370.75725777 C1.48971209 372.22553589 1.48747585 373.69385334 1.47775215 375.16210603 C1.42008062 384.59633702 1.95926663 392.10779971 8.11328125 399.55859375 C8.83902344 400.17863281 9.56476562 400.79867188 10.3125 401.4375 C11.03050781 402.07558594 11.74851562 402.71367187 12.48828125 403.37109375 C19.2378788 407.74835997 26.54262102 407.28347599 34.3161791 407.25299966 C35.56482502 407.25605276 36.81347094 407.25910585 38.09995461 407.26225147 C41.5752475 407.27046087 45.05043118 407.26620535 48.52572404 407.25995973 C52.3171031 407.2553558 56.10846371 407.26236831 59.89983907 407.26789337 C66.57345759 407.27600686 73.24704495 407.27664998 79.92066661 407.27248149 C89.91137996 407.26627526 99.90206464 407.27155101 109.89277589 407.2790789 C126.91842503 407.29156311 143.944064 407.29448866 160.96971703 407.29224396 C178.22921449 407.28999706 195.48870332 407.2920562 212.74819946 407.29938889 C214.38193995 407.30007784 214.38193995 407.30007784 216.04868529 407.30078072 C220.48449681 407.30266395 224.92030833 407.30457532 229.35611983 407.3065231 C275.66055497 407.32682592 321.96498528 407.33293558 368.26942436 407.33410732 C373.25552625 407.33423682 378.24162814 407.33437269 383.22773004 407.33451414 C385.08362787 407.33456515 385.08362787 407.33456515 386.9770186 407.3346172 C414.37805159 407.33543364 441.77908366 407.33981193 469.18011617 407.34482583 C480.4580131 407.3468825 491.73591005 407.34886254 503.013807 407.35085833 C504.25986394 407.35107951 505.50592089 407.35130069 506.78973713 407.35152857 C577.5400847 407.36406083 648.2904318 407.37244945 719.04078054 407.37153696 C721.04498066 407.37151145 723.04918078 407.37148753 725.0533809 407.37146414 C739.13389112 407.37129946 753.21440133 407.37109404 767.29491154 407.37087838 C771.33214727 407.37081684 775.369383 407.37075671 779.40661873 407.37069675 C782.77420123 407.37064656 786.14178374 407.37059498 789.50936625 407.37054053 C853.11826652 407.36951762 916.72716171 407.37235471 980.33605957 407.39123535 C981.34063889 407.39153343 981.34063889 407.39153343 982.36551273 407.39183752 C1003.29079442 407.39806025 1024.21607593 407.40479322 1045.14135742 407.41162109 C1066.61216127 407.41862387 1088.08296513 407.42556476 1109.55376911 407.43214989 C1110.21485787 407.43235294 1110.87594663 407.43255599 1111.55706838 407.4327652 C1152.95494447 407.44546219 1194.35281917 407.45329833 1235.75069714 407.45586586 C1237.02906539 407.45594576 1238.30743363 407.45602566 1239.62454032 407.45610799 C1267.68489855 407.45781436 1295.74525669 407.45833698 1323.80561496 407.45776723 C1333.84557083 407.45757426 1343.88552669 407.45747018 1353.92548256 407.45740977 C1356.42325392 407.45739395 1358.92102529 407.45737354 1361.41879665 407.45734853 C1401.25193218 407.45699559 1441.0850535 407.46840377 1480.91818496 407.48565616 C1521.02664644 407.50293953 1561.13508823 407.50735271 1601.24355186 407.49413352 C1606.78156699 407.49230883 1612.31958215 407.49062229 1617.85759735 407.48901749 C1618.94323459 407.48869731 1620.02887184 407.48837714 1621.14740718 407.48804726 C1638.36179271 407.4833348 1655.57614426 407.49207124 1672.7905234 407.50635986 C1689.7031953 407.5201182 1706.61581685 407.5196805 1723.52848761 407.50397559 C1733.45294853 407.4951883 1743.37726146 407.49741403 1753.30171024 407.51570916 C1759.8863929 407.5267605 1766.47096471 407.52339999 1773.05563876 407.50814359 C1776.79254443 407.49989355 1780.52915809 407.49791228 1784.26604632 407.51364497 C1788.28018894 407.53040707 1792.29363281 407.51627134 1796.30777341 407.49909532 C1798.03602825 407.51379418 1798.03602825 407.51379418 1799.79919733 407.52878998 C1807.00587401 407.46425604 1812.53884251 406.19060167 1819 403 C1819.73000611 402.66419805 1820.46001223 402.32839611 1821.21213974 401.98241834 C1823.56543061 400.68929932 1823.9523276 399.44456893 1825 397 C1825.495 396.236875 1825.99 395.47375 1826.5 394.6875 C1828.25044233 391.55129083 1829.11552891 388.46984812 1830 385 C1830.33 385 1830.66 385 1831 385 C1831 392.92 1831 400.84 1831 409 C1226.77 409 622.54 409 0 409 C0 274.03 0 139.06 0 0 Z " fill="#B4DFC8" transform="translate(0,0)"/>
<path d="M0 0 C21.45 0 42.9 0 65 0 C65 9.57 65 19.14 65 29 C61.7 29 58.4 29 55 29 C54.66226562 28.01257813 54.32453125 27.02515625 53.9765625 26.0078125 C53.52634467 24.71343623 53.07580716 23.41917113 52.625 22.125 C52.40328125 21.47402344 52.1815625 20.82304688 51.953125 20.15234375 C50.93037374 17.23449455 50.21443349 15.21443349 48 13 C45.47962036 12.62864085 45.47962036 12.62864085 42.5546875 12.5859375 C41.58515137 12.55032715 40.61561523 12.5147168 39.61669922 12.47802734 C38.38193848 12.44402832 37.14717773 12.4100293 35.875 12.375 C31.95625 12.25125 28.0375 12.1275 24 12 C24 24.54 24 37.08 24 50 C28.95 49.67 33.9 49.34 39 49 C39.474375 47.9275 39.94875 46.855 40.4375 45.75 C40.70433594 45.14671875 40.97117187 44.5434375 41.24609375 43.921875 C42.16749801 41.6940786 42.16749801 41.6940786 43 38 C46.63 38 50.26 38 54 38 C54 49.88 54 61.76 54 74 C50.7 74 47.4 74 44 74 C42.87695312 70.58203125 42.87695312 70.58203125 41.75390625 67.1640625 C41.04820271 64.98968201 41.04820271 64.98968201 40 63 C34.72 62.67 29.44 62.34 24 62 C24 75.86 24 89.72 24 104 C27.5475 103.896875 31.095 103.79375 34.75 103.6875 C36.41820801 103.65015747 36.41820801 103.65015747 38.12011719 103.61206055 C39.00344727 103.57894775 39.88677734 103.54583496 40.796875 103.51171875 C42.14797363 103.47244263 42.14797363 103.47244263 43.52636719 103.43237305 C46.49015373 102.91432469 47.85080831 102.08982176 50 100 C50.9790213 98.10967163 50.9790213 98.10967163 51.484375 95.98828125 C51.69707031 95.23095703 51.90976563 94.47363281 52.12890625 93.69335938 C52.33386719 92.90767578 52.53882813 92.12199219 52.75 91.3125 C53.08064453 90.11657227 53.08064453 90.11657227 53.41796875 88.89648438 C53.95838367 86.93454326 54.48095216 84.96770184 55 83 C58.3 83 61.6 83 65 83 C65 93.56 65 104.12 65 115 C43.88 115 22.76 115 1 115 C1 112.36 1 109.72 1 107 C1.804375 106.71125 2.60875 106.4225 3.4375 106.125 C6.1326468 105.26737432 6.1326468 105.26737432 7 103 C7.11942813 100.14813525 7.1783859 97.3199565 7.19287109 94.46704102 C7.20104858 93.58399292 7.20922607 92.70094482 7.21765137 91.7911377 C7.24251342 88.86206751 7.25902079 85.93304571 7.2734375 83.00390625 C7.28142302 81.50632939 7.28142302 81.50632939 7.28956985 79.97849846 C7.31630115 74.6971806 7.33567872 69.41588642 7.35009766 64.13452148 C7.36677263 58.66858855 7.41157428 53.20325539 7.4624691 47.73754978 C7.49604926 43.54346488 7.50766476 39.34952419 7.51332474 35.15531731 C7.52005961 33.13979428 7.53533926 31.12428148 7.55921555 29.10888863 C7.59068117 26.292872 7.59093248 23.47849828 7.58349609 20.66235352 C7.6081041 19.40686958 7.6081041 19.40686958 7.63320923 18.12602234 C7.66220887 15.54283121 7.66220887 15.54283121 7 12 C4.71366326 9.91768432 4.71366326 9.91768432 2 9 C1.34 8.67 0.68 8.34 0 8 C0 5.36 0 2.72 0 0 Z " fill="#039546" transform="translate(1708,65)"/>
<path d="M0 0 C1.0209375 0.36738281 1.0209375 0.36738281 2.0625 0.7421875 C8.34879439 3.43291199 12.65276357 8.13488402 16.171875 13.9296875 C18.46482006 19.66205015 17.49624906 26.47455187 15.5625 32.1875 C12.31525945 39.47059667 5.8611938 44.25440672 -1 48 C-1.66 48 -2.32 48 -3 48 C-3 48.66 -3 49.32 -3 50 C-2.18208984 50.185625 -2.18208984 50.185625 -1.34765625 50.375 C6.36230463 52.48370725 12.20430355 56.8644306 16.6953125 63.5078125 C20.0178074 69.85437461 19.67194976 77.00115254 19 84 C17.06573926 90.09171742 13.92425323 94.89645564 9 99 C7.989375 99.845625 6.97875 100.69125 5.9375 101.5625 C-2.73389816 107.50009273 -12.56717698 108.6469314 -22.8125 108.4375 C-23.94526367 108.4257373 -25.07802734 108.41397461 -26.24511719 108.40185547 C-37.15980092 108.17869279 -46.63187041 106.4560432 -57 103 C-57 96.4 -57 89.8 -57 83 C-47.65343165 82.30119115 -47.65343165 82.30119115 -43 83 C-40.3653238 85.27220535 -39.34992662 87.84816239 -38 91 C-35.56890893 93.78860446 -34.5205926 94.82646913 -31 96 C-28.4020878 96.14877911 -25.84856851 96.23103235 -23.25 96.25 C-22.5590625 96.270625 -21.868125 96.29125 -21.15625 96.3125 C-16.04353033 96.3509415 -12.52714818 95.41598432 -8 93 C-2.71959421 86.33001374 -2.23928235 80.27146517 -3 72 C-4.6681208 66.62388497 -8.12439098 63.63282887 -13 61 C-18.54418541 58.64974749 -23.94459912 58.56785857 -29.875 58.375 C-30.84953125 58.33632812 -31.8240625 58.29765625 -32.828125 58.2578125 C-35.21845683 58.164074 -37.60920166 58.08097178 -40 58 C-40 54.37 -40 50.74 -40 47 C-37.99099609 46.65388672 -37.99099609 46.65388672 -35.94140625 46.30078125 C-20.8637917 43.87062476 -20.8637917 43.87062476 -8.5625 35.4375 C-5.19341033 30.18172011 -4.12118906 26.24932224 -5 20 C-7.22614218 15.54771564 -9.51018386 13.13266267 -14 11 C-19.69922961 9.31265045 -25.07690986 9.42307296 -30.75 11.125 C-36.87052354 14.65607127 -38.781186 18.34355801 -41 25 C-45.95 25 -50.9 25 -56 25 C-56 19.06 -56 13.12 -56 7 C-39.59421027 -0.78579852 -17.91297304 -6.49345273 0 0 Z " fill="#039546" transform="translate(190,149)"/>
<path d="M0 0 C1.62133789 1.17626953 1.62133789 1.17626953 3 3 C3.34057617 5.54370117 3.34057617 5.54370117 3.29296875 8.54296875 C3.28330078 9.61611328 3.27363281 10.68925781 3.26367188 11.79492188 C3.23853516 12.91447266 3.21339844 14.03402344 3.1875 15.1875 C3.16719727 16.88422852 3.16719727 16.88422852 3.14648438 18.61523438 C3.11109958 21.41063317 3.06172948 24.20507892 3 27 C3.90363281 26.77183594 4.80726563 26.54367188 5.73828125 26.30859375 C7.50751953 25.87740234 7.50751953 25.87740234 9.3125 25.4375 C10.48425781 25.14746094 11.65601563 24.85742188 12.86328125 24.55859375 C16 24 16 24 19 25 C18.48690943 29.8193864 16.15928188 33.21429135 13.5 37.125 C10.28680892 41.81638836 10.28680892 41.81638836 8 47 C9.7015625 46.505 9.7015625 46.505 11.4375 46 C14.5478202 45.243137 17.55143865 44.73754565 20.75 44.5625 C21.46671875 44.52253906 22.1834375 44.48257813 22.921875 44.44140625 C26.21888499 45.32763262 27.20094563 47.16913503 29 50 C29.83330805 52.46520297 30.46723159 54.72359762 31 57.25 C31.15952148 57.96148193 31.31904297 58.67296387 31.48339844 59.40600586 C33.80483811 70.17716916 35.35810911 81.10937268 37 92 C42.94 91.505 42.94 91.505 49 91 C49.66 89.35 50.32 87.7 51 86 C56.39144588 81.92890821 60.39251278 81.55898505 67 82 C66.96519531 83.19238281 66.93039062 84.38476562 66.89453125 85.61328125 C66.86639247 87.17967342 66.8390924 88.74608081 66.8125 90.3125 C66.78736328 91.09818359 66.76222656 91.88386719 66.73632812 92.69335938 C66.72666016 93.45068359 66.71699219 94.20800781 66.70703125 94.98828125 C66.6913208 95.68477783 66.67561035 96.38127441 66.65942383 97.09887695 C67.09906839 99.55300757 68.22606767 100.31654779 70 102 C70.1875 104.6875 70.1875 104.6875 70 107 C66.30746735 108.84626633 62.03862696 108.34740877 58 108 C54.53473556 106.73990384 52.63442378 106.01807237 50.67578125 102.875 C49.144115 100.72264061 49.144115 100.72264061 46.5390625 100.828125 C45.09660156 101.03695312 45.09660156 101.03695312 43.625 101.25 C39.05114915 101.77925193 34.54298695 102.19388163 29.9375 102.3125 C28.34228516 102.36857422 28.34228516 102.36857422 26.71484375 102.42578125 C24 102 24 102 22.22265625 100.29296875 C17.90315335 92.19217577 17.30630362 82.11349553 16.17773438 73.11914062 C15.47835911 67.92086016 14.29510433 63.72408976 12 59 C8.37 58.67 4.74 58.34 1 58 C0.731875 58.82757813 0.46375 59.65515625 0.1875 60.5078125 C-1.34736015 65.02151308 -3.0600271 69.45992113 -4.7890625 73.90234375 C-7.13640835 80.05523513 -9.41729388 86.32329789 -9 93 C-7.68 93.33 -6.36 93.66 -5 94 C-5 96.31 -5 98.62 -5 101 C-8.13178854 102.56589427 -11.43900246 102.30810447 -14.875 102.375 C-15.95587891 102.43107422 -15.95587891 102.43107422 -17.05859375 102.48828125 C-20.89728901 102.55190603 -22.61137712 102.35797439 -25.4765625 99.71875 C-29.03489147 93.36850138 -26.90932314 86.03371872 -25.1159668 79.35400391 C-20.60553518 64.26999804 -12.40469292 50.21607509 -4 37 C-5.6396875 37.1546875 -5.6396875 37.1546875 -7.3125 37.3125 C-8.529375 37.209375 -9.74625 37.10625 -11 37 C-13.69873427 33.54482879 -14.39087841 30.80655296 -14.51171875 26.48046875 C-14.54716797 25.45888672 -14.58261719 24.43730469 -14.61914062 23.38476562 C-14.64169922 22.32966797 -14.66425781 21.27457031 -14.6875 20.1875 C-14.73874023 18.57584961 -14.73874023 18.57584961 -14.79101562 16.93164062 C-14.87326643 14.28786467 -14.94249209 11.64441079 -15 9 C-15.66 8.67 -16.32 8.34 -17 8 C-17 6.02 -17 4.04 -17 2 C-11.45710229 0.07203558 -5.86568198 -0.95368606 0 0 Z " fill="#059647" transform="translate(327,63)"/>
<path d="M0 0 C24.42 0 48.84 0 74 0 C74 10.89 74 21.78 74 33 C70.7 33 67.4 33 64 33 C63.7525 32.236875 63.505 31.47375 63.25 30.6875 C62.18781577 27.55405653 61.10805468 24.42993743 60 21.3125 C59.505 19.91451172 59.505 19.91451172 59 18.48828125 C58.02384051 15.81430351 58.02384051 15.81430351 56 13 C53.3443272 12.41651248 53.3443272 12.41651248 50.375 12.3125 C49.37210938 12.24675781 48.36921875 12.18101562 47.3359375 12.11328125 C46.56507812 12.07589844 45.79421875 12.03851563 45 12 C45.08433415 23.53518891 45.17919058 35.07023849 45.28752708 46.60522842 C45.33749903 51.96123915 45.38382909 57.31723007 45.421875 62.67333984 C45.45871631 67.84109291 45.50507329 73.00868059 45.55806351 78.17629242 C45.57661356 80.14904635 45.59171926 82.12183574 45.60334396 84.09464264 C45.62019584 86.85526001 45.64922848 89.61549811 45.68115234 92.37597656 C45.68331253 93.19381119 45.68547272 94.01164581 45.68769836 94.85426331 C45.69099919 100.2721545 45.69099919 100.2721545 48 105 C51.04199472 106.29231642 51.04199472 106.29231642 54 107 C54 109.64 54 112.28 54 115 C42.78 115 31.56 115 20 115 C20 112.36 20 109.72 20 107 C23.465 106.01 23.465 106.01 27 105 C27.9780275 100.06480099 28.16893137 95.33984949 28.20532227 90.33251953 C28.21522186 89.48308273 28.22512146 88.63364594 28.23532104 87.75846863 C28.26676567 84.96661105 28.29162573 82.1747365 28.31640625 79.3828125 C28.33699051 77.44082206 28.35798736 75.49883596 28.37937927 73.55685425 C28.43444796 68.45731119 28.48392402 63.35772871 28.53222656 58.25811768 C28.58255289 53.04964714 28.63818074 47.8412335 28.69335938 42.6328125 C28.80075488 32.42192366 28.90224084 22.21098532 29 12 C27.21795648 12.10734298 25.43683364 12.23005566 23.65625 12.359375 C22.66431641 12.42608398 21.67238281 12.49279297 20.65039062 12.56152344 C17.77974928 12.79197617 17.77974928 12.79197617 15.5 15.25 C13.3237801 19.57059268 12.56492996 24.56445242 11.61328125 29.26953125 C11 32 11 32 10 33 C6.7 33 3.4 33 0 33 C0 22.11 0 11.22 0 0 Z " fill="#039546" transform="translate(1704,231)"/>
<path d="M0 0 C3.70084199 1.47712565 6.68973548 3.15940226 8.92578125 6.46875 C9.24859634 9.22590837 9.11198077 11.67575715 8.92578125 14.46875 C10.49779297 14.43394531 10.49779297 14.43394531 12.1015625 14.3984375 C13.48046162 14.37967697 14.85936845 14.36147707 16.23828125 14.34375 C16.92857422 14.32699219 17.61886719 14.31023437 18.33007812 14.29296875 C22.09713521 14.25657206 23.71009829 14.32496136 26.92578125 16.46875 C27.2890625 19.015625 27.2890625 19.015625 27.23828125 22.21875 C27.23441406 23.24484375 27.23054688 24.2709375 27.2265625 25.328125 C26.78495317 31.4074223 25.78778907 37.43469523 24.92578125 43.46875 C39.28078125 42.47875 39.28078125 42.47875 53.92578125 41.46875 C53.80078125 49.28125 53.80078125 49.28125 53.74560547 51.72973633 C53.71601557 55.53394761 53.76863571 57.23303169 55.92578125 60.46875 C56.05078125 63.15625 56.05078125 63.15625 55.92578125 65.46875 C51.55494673 66.92569484 47.48959714 67.07299354 42.92578125 66.46875 C38.3996913 63.91768112 36.68801924 61.43970109 35.05078125 56.65625 C34.67953125 55.274375 34.30828125 53.8925 33.92578125 52.46875 C30.29578125 52.46875 26.66578125 52.46875 22.92578125 52.46875 C22.74402344 54.60730469 22.74402344 54.60730469 22.55859375 56.7890625 C21.73347833 66.28744551 20.81791888 75.70486382 19.3671875 85.12890625 C18.56257812 91.21687987 18.25203408 97.33863107 17.92578125 103.46875 C18.91578125 103.46875 19.90578125 103.46875 20.92578125 103.46875 C20.92578125 105.44875 20.92578125 107.42875 20.92578125 109.46875 C15.19846737 112.01422283 9.08889959 112.0961333 2.92578125 111.46875 C0.92578125 109.46875 0.92578125 109.46875 0.66235352 106.82397461 C0.71202714 97.10823316 1.64467925 87.65936036 2.86328125 78.03125 C3.04827655 76.5163675 3.23252455 75.00139356 3.41601562 73.48632812 C4.19054545 67.1376483 5.0062628 60.79804237 5.92578125 54.46875 C0.48078125 54.96375 0.48078125 54.96375 -5.07421875 55.46875 C-5.17734375 56.5 -5.28046875 57.53125 -5.38671875 58.59375 C-6.36673967 64.11750426 -7.57366498 67.31207313 -12.07421875 70.78125 C-15.8640906 72.91305291 -18.48497192 73.59323184 -22.76171875 73.53125 C-23.56996094 73.52222656 -24.37820313 73.51320313 -25.2109375 73.50390625 C-25.82582031 73.49230469 -26.44070313 73.48070312 -27.07421875 73.46875 C-26.19921875 66.71875 -26.19921875 66.71875 -25.07421875 64.46875 C-24.84195415 61.75612884 -24.6548564 59.06101874 -24.51171875 56.34375 C-24.46853516 55.58964844 -24.42535156 54.83554687 -24.38085938 54.05859375 C-24.27473555 52.19553112 -24.17396874 50.33216476 -24.07421875 48.46875 C-13.39324832 46.8673818 -2.86203777 46.00368317 7.92578125 45.46875 C8.25578125 38.53875 8.58578125 31.60875 8.92578125 24.46875 C0.93634635 21.70072052 0.93634635 21.70072052 -2.07421875 23.46875 C-3.9480148 23.53908769 -5.82422977 23.5530522 -7.69921875 23.53125 C-8.70210938 23.52222656 -9.705 23.51320313 -10.73828125 23.50390625 C-11.50914062 23.49230469 -12.28 23.48070312 -13.07421875 23.46875 C-13.27508318 19.75275809 -13.22616245 18.69666555 -11.07421875 15.46875 C-10.83314549 13.18226152 -10.83314549 13.18226152 -10.94921875 10.78125 C-10.97628906 9.56888672 -10.97628906 9.56888672 -11.00390625 8.33203125 C-11.02710938 7.71714844 -11.0503125 7.10226563 -11.07421875 6.46875 C-12.06421875 6.13875 -13.05421875 5.80875 -14.07421875 5.46875 C-14.07421875 3.81875 -14.07421875 2.16875 -14.07421875 0.46875 C-9.95130487 -1.59270694 -4.38990714 -1.12434533 0 0 Z " fill="#059648" transform="translate(334.07421875,235.53125)"/>
<path d="M0 0 C0.33 0 0.66 0 1 0 C1 7.92 1 15.84 1 24 C-603.23 24 -1207.46 24 -1830 24 C-1830 16.41 -1830 8.82 -1830 1 C-1827.87253732 3.12746268 -1827.43791997 4.35088857 -1826.4375 7.125 C-1823.99843007 12.75852346 -1820.12877405 16.67387437 -1815 20 C-1808.60337638 22.40601442 -1802.45972639 22.27956468 -1795.6838209 22.25299966 C-1794.43517498 22.25605276 -1793.18652906 22.25910585 -1791.90004539 22.26225147 C-1788.4247525 22.27046087 -1784.94956882 22.26620535 -1781.47427596 22.25995973 C-1777.6828969 22.2553558 -1773.89153629 22.26236831 -1770.10016093 22.26789337 C-1763.42654241 22.27600686 -1756.75295505 22.27664998 -1750.07933339 22.27248149 C-1740.08862004 22.26627526 -1730.09793536 22.27155101 -1720.10722411 22.2790789 C-1703.08157497 22.29156311 -1686.055936 22.29448866 -1669.03028297 22.29224396 C-1651.77078551 22.28999706 -1634.51129668 22.2920562 -1617.25180054 22.29938889 C-1615.61806005 22.30007784 -1615.61806005 22.30007784 -1613.95131471 22.30078072 C-1609.51550319 22.30266395 -1605.07969167 22.30457532 -1600.64388017 22.3065231 C-1554.33944503 22.32682592 -1508.03501472 22.33293558 -1461.73057564 22.33410732 C-1456.74447375 22.33423682 -1451.75837186 22.33437269 -1446.77226996 22.33451414 C-1444.91637213 22.33456515 -1444.91637213 22.33456515 -1443.0229814 22.3346172 C-1415.62194841 22.33543364 -1388.22091634 22.33981193 -1360.81988383 22.34482583 C-1349.5419869 22.3468825 -1338.26408995 22.34886254 -1326.986193 22.35085833 C-1325.74013606 22.35107951 -1324.49407911 22.35130069 -1323.21026287 22.35152857 C-1252.4599153 22.36406083 -1181.7095682 22.37244945 -1110.95921946 22.37153696 C-1108.95501934 22.37151145 -1106.95081922 22.37148753 -1104.9466191 22.37146414 C-1090.86610888 22.37129946 -1076.78559867 22.37109404 -1062.70508846 22.37087838 C-1058.66785273 22.37081684 -1054.630617 22.37075671 -1050.59338127 22.37069675 C-1047.22579877 22.37064656 -1043.85821626 22.37059498 -1040.49063375 22.37054053 C-976.88173348 22.36951762 -913.27283829 22.37235471 -849.66394043 22.39123535 C-848.65936111 22.39153343 -848.65936111 22.39153343 -847.63448727 22.39183752 C-826.70920558 22.39806025 -805.78392407 22.40479322 -784.85864258 22.41162109 C-763.38783873 22.41862387 -741.91703487 22.42556476 -720.44623089 22.43214989 C-719.78514213 22.43235294 -719.12405337 22.43255599 -718.44293162 22.4327652 C-677.04505553 22.44546219 -635.64718083 22.45329833 -594.24930286 22.45586586 C-592.97093461 22.45594576 -591.69256637 22.45602566 -590.37545968 22.45610799 C-562.31510145 22.45781436 -534.25474331 22.45833698 -506.19438504 22.45776723 C-496.15442917 22.45757426 -486.11447331 22.45747018 -476.07451744 22.45740977 C-473.57674608 22.45739395 -471.07897471 22.45737354 -468.58120335 22.45734853 C-428.74806782 22.45699559 -388.9149465 22.46840377 -349.08181504 22.48565616 C-308.97335356 22.50293953 -268.86491177 22.50735271 -228.75644814 22.49413352 C-223.21843301 22.49230883 -217.68041785 22.49062229 -212.14240265 22.48901749 C-211.05676541 22.48869731 -209.97112816 22.48837714 -208.85259282 22.48804726 C-191.63820729 22.4833348 -174.42385574 22.49207124 -157.2094766 22.50635986 C-140.2968047 22.5201182 -123.38418315 22.5196805 -106.47151239 22.50397559 C-96.54705147 22.4951883 -86.62273854 22.49741403 -76.69828976 22.51570916 C-70.1136071 22.5267605 -63.52903529 22.52339999 -56.94436124 22.50814359 C-53.20745557 22.49989355 -49.47084191 22.49791228 -45.73395368 22.51364497 C-41.71981106 22.53040707 -37.70636719 22.51627134 -33.69222659 22.49909532 C-31.96397175 22.51379418 -31.96397175 22.51379418 -30.20080267 22.52878998 C-22.99412599 22.46425604 -17.46115749 21.19060167 -11 18 C-9.90499083 17.49629708 -9.90499083 17.49629708 -8.78786026 16.98241834 C-6.43456939 15.68929932 -6.0476724 14.44456893 -5 12 C-4.505 11.236875 -4.01 10.47375 -3.5 9.6875 C-1.74955767 6.55129083 -0.88447109 3.46984812 0 0 Z " fill="#BFE4D0" transform="translate(1830,385)"/>
<path d="M0 0 C4.03426587 -0.10051836 8.06802545 -0.17222514 12.10327148 -0.21972656 C13.4696119 -0.23957267 14.83587059 -0.26665914 16.2019043 -0.30175781 C27.76398272 -0.59091608 38.99605273 0.02332216 48 8 C52.07207051 13.13384248 52.62072493 18.70296056 52.38671875 25.09375 C51.65979273 30.5567092 49.62501246 34.27939857 45.875 38.25 C38.23909743 42.89794069 30.55286368 45.12366236 21.640625 45.1328125 C20.44308594 45.13410156 19.24554687 45.13539063 18.01171875 45.13671875 C16.77035156 45.13285156 15.52898437 45.12898438 14.25 45.125 C12.99316406 45.12886719 11.73632812 45.13273437 10.44140625 45.13671875 C9.24902344 45.13542969 8.05664062 45.13414062 6.828125 45.1328125 C5.7340332 45.13168457 4.63994141 45.13055664 3.51269531 45.12939453 C1 45 1 45 0 44 C-0.0927833 42.61839885 -0.11747043 41.23211962 -0.11352539 39.84741211 C-0.11341209 38.52615578 -0.11341209 38.52615578 -0.11329651 37.1782074 C-0.10555458 35.74227989 -0.10555458 35.74227989 -0.09765625 34.27734375 C-0.0962413 33.30213272 -0.09482635 32.32692169 -0.09336853 31.32215881 C-0.08775133 28.19390857 -0.07519593 25.06572877 -0.0625 21.9375 C-0.05748722 19.82226666 -0.05292393 17.70703219 -0.04882812 15.59179688 C-0.03777631 10.39450704 -0.02102146 5.19725855 0 0 Z " fill="#F9FCFA" transform="translate(1320,210)"/>
<path d="M0 0 C5.23875 -0.0825 10.4775 -0.165 15.875 -0.25 C17.50679199 -0.28641602 19.13858398 -0.32283203 20.81982422 -0.36035156 C30.41302035 -0.43323211 38.44166537 0.1064225 46 6.5625 C50.56641788 12.12782179 50.59974212 15.99973131 50 23 C48.30479346 29.35702454 44.51046325 33.55382794 39 37 C31.17881065 40.89241611 22.9725117 40.344552 14.4375 40.1875 C9.673125 40.125625 4.90875 40.06375 0 40 C0 26.8 0 13.6 0 0 Z " fill="#FAFDFB" transform="translate(1320,157)"/>
<path d="M0 0 C0.33 0 0.66 0 1 0 C1 7.92 1 15.84 1 24 C-6.92 24 -14.84 24 -23 24 C-20.75848866 21.75848866 -19.06861245 21.11804865 -16.125 20 C-10.23223261 18.14992305 -10.23223261 18.14992305 -5.9375 14.1875 C-5.628125 13.465625 -5.31875 12.74375 -5 12 C-4.2575 10.8553125 -4.2575 10.8553125 -3.5 9.6875 C-1.74955767 6.55129083 -0.88447109 3.46984812 0 0 Z " fill="#F7FBF9" transform="translate(1830,385)"/>
<path d="M0 0 C8.25 0 16.5 0 25 0 C22 2 22 2 18.875 2.625 C12.88317581 4.25335137 7.8731285 9.03772094 4.609375 14.19921875 C3.95168689 15.52686526 3.32749645 16.87219444 2.75390625 18.23828125 C2 20 2 20 0 23 C0 15.41 0 7.82 0 0 Z " fill="#F9FCFA" transform="translate(0,0)"/>
<path d="M0 0 C2.12746268 2.12746268 2.56208003 3.35088857 3.5625 6.125 C6.31487165 12.52995509 11.40140926 17.42025399 17.78515625 20.22265625 C18.51605469 20.47917969 19.24695313 20.73570312 20 21 C20 21.66 20 22.32 20 23 C13.4 23 6.8 23 0 23 C0 15.41 0 7.82 0 0 Z " fill="#F9FCFA" transform="translate(0,386)"/>
<path d="M0 0 C6.27 0 12.54 0 19 0 C19 7.59 19 15.18 19 23 C17.45790811 20.68686216 16.21711525 18.53951971 15 16.0625 C14.67 15.39347656 14.34 14.72445313 14 14.03515625 C13.31141109 12.63377023 12.639113 11.22430036 11.98046875 9.80859375 C10.67582052 7.40201156 9.50605211 7.08369821 7 6 C5.74367679 5.30294325 4.49402729 4.59377132 3.25 3.875 C2.1775 3.25625 1.105 2.6375 0 2 C0 1.34 0 0.68 0 0 Z " fill="#F8FCFA" transform="translate(1812,0)"/>
</svg>
